<?xml version="1.0" encoding="UTF-8"?>
<svg xmlns="http://www.w3.org/2000/svg" xmlns:xlink="http://www.w3.org/1999/xlink" width="45px" height="45px" viewBox="0 0 45 53" version="1.1">
<g id="surface1">
<path style=" stroke:none;fill-rule:nonzero;fill:rgb(0%,26.666668%,50.980395%);fill-opacity:1;" d="M 44.363281 16.410156 C 44.382812 15.648438 44.195312 14.898438 43.832031 14.230469 C 43.453125 13.585938 42.90625 13.058594 42.246094 12.695312 C 36.425781 9.347656 30.597656 6.007812 24.773438 2.667969 C 23.203125 1.765625 21.679688 1.796875 20.121094 2.714844 C 17.804688 4.070312 6.199219 10.699219 2.742188 12.695312 C 1.316406 13.515625 0.625 14.773438 0.625 16.40625 L 0.625 36.59375 C 0.609375 37.335938 0.785156 38.070312 1.136719 38.726562 C 1.515625 39.390625 2.074219 39.9375 2.746094 40.304688 C 6.207031 42.308594 17.8125 48.925781 20.128906 50.289062 C 21.691406 51.207031 23.210938 51.238281 24.78125 50.335938 C 30.605469 46.988281 36.429688 43.644531 42.257812 40.304688 C 42.929688 39.9375 43.488281 39.390625 43.867188 38.726562 C 44.21875 38.070312 44.394531 37.335938 44.378906 36.589844 L 44.378906 16.410156 Z M 44.363281 16.410156 "/>
<path style=" stroke:none;fill-rule:nonzero;fill:rgb(0%,34.901962%,61.176473%);fill-opacity:1;" d="M 44.367188 36.59375 C 44.382812 37.335938 44.207031 38.070312 43.855469 38.726562 C 43.769531 38.882812 43.671875 39.035156 43.5625 39.175781 L 22.496094 26.5 L 42.246094 12.695312 C 42.902344 13.058594 43.449219 13.585938 43.828125 14.230469 C 44.195312 14.898438 44.382812 15.648438 44.363281 16.410156 C 44.367188 23.136719 44.367188 36.59375 44.367188 36.59375 Z M 44.367188 36.59375 "/>
<path style=" stroke:none;fill-rule:nonzero;fill:rgb(39.607844%,60.392159%,82.352942%);fill-opacity:1;" d="M 43.828125 14.230469 L 1.132812 38.726562 C 0.78125 38.070312 0.605469 37.335938 0.621094 36.59375 L 0.621094 16.40625 C 0.621094 14.773438 1.316406 13.515625 2.738281 12.695312 C 6.199219 10.699219 17.804688 4.070312 20.125 2.710938 C 21.679688 1.792969 23.203125 1.761719 24.773438 2.664062 C 30.59375 6.011719 36.417969 9.355469 42.246094 12.695312 C 42.902344 13.058594 43.449219 13.585938 43.828125 14.230469 Z M 43.828125 14.230469 "/>
<path style=" stroke:none;fill-rule:nonzero;fill:rgb(100%,100%,100%);fill-opacity:1;" d="M 23.339844 34.65625 C 20.410156 34.660156 17.710938 33.074219 16.296875 30.523438 C 16.226562 30.398438 16.160156 30.269531 16.097656 30.140625 C 14.324219 26.492188 15.570312 22.101562 18.996094 19.917969 C 22.421875 17.730469 26.949219 18.445312 29.535156 21.574219 C 29.640625 21.703125 29.738281 21.835938 29.84375 21.972656 C 29.890625 22.039062 29.941406 22.105469 29.984375 22.175781 L 37.039062 18.128906 C 36.867188 17.855469 36.6875 17.585938 36.5 17.328125 C 36.402344 17.191406 36.300781 17.058594 36.203125 16.925781 C 31.117188 10.355469 21.832031 8.738281 14.808594 13.203125 C 7.789062 17.671875 5.359375 26.742188 9.214844 34.09375 C 9.285156 34.222656 9.355469 34.347656 9.417969 34.472656 C 12.199219 39.355469 17.34375 42.433594 22.980469 42.582031 C 28.613281 42.730469 33.914062 39.929688 36.949219 35.199219 L 30.050781 31.046875 C 28.570312 33.300781 26.042969 34.65625 23.339844 34.65625 Z M 23.339844 34.65625 "/>
</g>
</svg>
