<?xml version="1.0" encoding="UTF-8"?>
<svg xmlns="http://www.w3.org/2000/svg" xmlns:xlink="http://www.w3.org/1999/xlink" width="45px" height="45px" viewBox="0 0 45 51" version="1.1">
<g id="surface1">
<path style=" stroke:none;fill-rule:nonzero;fill:rgb(10.588235%,45.09804%,72.941178%);fill-opacity:1;" d="M 3.769531 45.65625 L 0 0.0859375 L 45 0.175781 L 41.015625 45.65625 L 22.667969 50.914062 Z M 3.769531 45.65625 "/>
<path style=" stroke:none;fill-rule:nonzero;fill:rgb(10.980392%,53.333336%,78.039217%);fill-opacity:1;" d="M 22.667969 46.511719 L 22.667969 4.425781 L 41.199219 4.488281 L 37.898438 42.140625 Z M 22.667969 46.511719 "/>
<path style=" stroke:none;fill-rule:nonzero;fill:rgb(100%,100%,100%);fill-opacity:1;" d="M 36.597656 9.804688 L 8.09375 9.804688 L 8.863281 15.304688 L 22.390625 15.304688 L 9.082031 20.960938 L 9.851562 26.28125 L 29.464844 26.28125 L 28.753906 33.707031 L 22.113281 34.992188 L 16.089844 33.460938 L 15.628906 29.242188 L 10.097656 29.242188 L 10.839844 38.015625 L 22.699219 41.285156 L 34.066406 37.710938 L 35.519531 20.5625 L 23.503906 20.5625 L 36.597656 15.183594 Z M 36.597656 9.804688 "/>
</g>
</svg>
