<?xml version="1.0" encoding="UTF-8"?>
<svg xmlns="http://www.w3.org/2000/svg" xmlns:xlink="http://www.w3.org/1999/xlink" width="45px" height="45px" viewBox="0 0 45 51" version="1.1">
<g id="surface1">
<path style=" stroke:none;fill-rule:nonzero;fill:rgb(91.37255%,79.215688%,19.607843%);fill-opacity:1;" d="M 3.769531 45.65625 L 0 0.0859375 L 45 0.175781 L 41.015625 45.65625 L 22.667969 50.914062 Z M 3.769531 45.65625 "/>
<path style=" stroke:none;fill-rule:nonzero;fill:rgb(100%,87.058824%,14.509805%);fill-opacity:1;" d="M 22.667969 46.511719 L 22.667969 4.425781 L 41.199219 4.488281 L 37.898438 42.140625 Z M 22.667969 46.511719 "/>
<path style=" stroke:none;fill-rule:nonzero;fill:rgb(100%,100%,100%);fill-opacity:1;" d="M 20.683594 9.421875 L 15.785156 9.421875 L 15.785156 37.4375 L 11.976562 36.71875 L 11.976562 32.945312 L 7.441406 32.226562 L 7.441406 40.667969 L 20.683594 44.078125 Z M 24.359375 9.421875 L 37.921875 9.421875 L 37.015625 14.792969 L 29.539062 14.792969 L 29.539062 23.601562 L 37.015625 23.601562 L 36.109375 41.386719 L 24.359375 44.078125 L 24.359375 38.511719 L 32.296875 35.820312 L 32.757812 28.457031 L 24.359375 29.660156 Z M 24.359375 9.421875 "/>
</g>
</svg>
