<?xml version="1.0" encoding="UTF-8"?>
<svg xmlns="http://www.w3.org/2000/svg" xmlns:xlink="http://www.w3.org/1999/xlink" width="45px" height="45px" viewBox="0 0 45 50" version="1.1">
<defs>
<linearGradient id="linear0" gradientUnits="userSpaceOnUse" x1="12914.637695" y1="-27007.679688" x2="12991.026367" y2="-27073.402344" gradientTransform="matrix(0.200256,0,0,-0.20092,-2581.000488,-5425.618686)">
<stop offset="0" style="stop-color:rgb(36.078431%,62.745098%,83.529412%);stop-opacity:1;"/>
<stop offset="1" style="stop-color:rgb(19.215686%,41.568627%,60%);stop-opacity:1;"/>
</linearGradient>
<linearGradient id="linear1" gradientUnits="userSpaceOnUse" x1="13020.697266" y1="-27113.132812" x2="12993.418945" y2="-27074.539062" gradientTransform="matrix(0.200256,0,0,-0.20092,-2581.000488,-5425.618686)">
<stop offset="0" style="stop-color:rgb(100%,83.137255%,24.313725%);stop-opacity:1;"/>
<stop offset="1" style="stop-color:rgb(100%,91.372549%,45.882353%);stop-opacity:1;"/>
</linearGradient>
<filter id="alpha" filterUnits="objectBoundingBox" x="0%" y="0%" width="100%" height="100%">
  <feColorMatrix type="matrix" in="SourceGraphic" values="0 0 0 0 1 0 0 0 0 1 0 0 0 0 1 0 0 0 1 0"/>
</filter>
<mask id="mask0">
  <g filter="url(#alpha)">
<rect x="0" y="0" width="45" height="50" style="fill:rgb(0%,0%,0%);fill-opacity:0.443137;stroke:none;"/>
  </g>
</mask>
<radialGradient id="radial0" gradientUnits="userSpaceOnUse" cx="-83039.664062" cy="-13866.398438" fx="-83039.664062" fy="-13866.398438" r="20.3396" gradientTransform="matrix(0,-0.0848603,-0.375486,0,-5186.780724,-7015.422802)">
<stop offset="0" style="stop-color:rgb(72.156863%,72.156863%,72.156863%);stop-opacity:0.498039;"/>
<stop offset="1" style="stop-color:rgb(49.803922%,50.196078%,50.196078%);stop-opacity:0;"/>
</radialGradient>
<clipPath id="clip1">
  <rect x="0" y="0" width="45" height="50"/>
</clipPath>
<g id="surface5" clip-path="url(#clip1)">
<path style=" stroke:none;fill-rule:nonzero;fill:url(#radial0);" d="M 28.835938 31.636719 C 28.835938 32.589844 24.816406 33.371094 19.863281 33.371094 C 14.914062 33.371094 10.894531 32.589844 10.894531 31.636719 C 10.894531 30.683594 14.914062 29.90625 19.863281 29.90625 C 24.816406 29.90625 28.835938 30.679688 28.835938 31.636719 Z M 28.835938 31.636719 "/>
</g>
</defs>
<g id="surface1">
<path style=" stroke:none;fill-rule:nonzero;fill:rgb(39.607844%,39.607844%,39.607844%);fill-opacity:1;" d="M 4.914062 42.742188 C 4.914062 40.761719 4.34375 39.773438 3.203125 39.738281 C 2.742188 39.703125 2.316406 39.808594 1.886719 39.949219 C 1.53125 40.054688 1.316406 40.195312 1.210938 40.304688 L 1.210938 44.972656 C 1.921875 45.433594 2.5625 45.644531 3.132812 45.609375 C 4.308594 45.5 4.914062 44.546875 4.914062 42.742188 Z M 6.300781 42.816406 C 6.300781 43.804688 6.089844 44.617188 5.589844 45.292969 C 5.054688 46.035156 4.34375 46.425781 3.382812 46.425781 C 2.671875 46.457031 1.960938 46.210938 1.210938 45.75 L 1.210938 49.996094 L 0 49.570312 L 0 40.125 C 0.214844 39.878906 0.464844 39.664062 0.75 39.488281 C 1.460938 39.066406 2.351562 38.851562 3.347656 38.851562 C 4.273438 38.851562 5.019531 39.242188 5.519531 39.984375 C 6.050781 40.796875 6.300781 41.683594 6.300781 42.816406 Z M 13.671875 45.609375 C 13.671875 46.953125 13.527344 47.871094 13.28125 48.371094 C 12.992188 48.863281 12.496094 49.289062 11.746094 49.609375 C 11.105469 49.855469 10.46875 49.996094 9.753906 49.996094 L 9.539062 49.253906 C 10.289062 49.148438 10.785156 49.039062 11.070312 48.96875 C 11.640625 48.757812 12.066406 48.476562 12.28125 48.050781 C 12.457031 47.730469 12.527344 47.09375 12.527344 46.175781 L 12.527344 45.855469 C 11.710938 46.246094 10.820312 46.421875 9.929688 46.421875 C 9.324219 46.421875 8.789062 46.246094 8.363281 45.855469 C 7.867188 45.46875 7.617188 44.9375 7.617188 44.300781 L 7.617188 39.3125 L 8.824219 38.890625 L 8.824219 43.914062 C 8.824219 44.445312 9.003906 44.867188 9.359375 45.152344 C 9.714844 45.433594 10.140625 45.574219 10.710938 45.574219 C 11.28125 45.574219 11.851562 45.363281 12.492188 44.9375 L 12.492188 39.0625 L 13.703125 39.0625 Z M 18.371094 46.386719 L 17.976562 46.386719 C 17.300781 46.386719 16.769531 46.210938 16.375 45.894531 C 15.984375 45.574219 15.804688 45.113281 15.804688 44.550781 L 15.804688 39.808594 L 14.988281 39.808594 L 14.988281 39.0625 L 15.804688 39.0625 L 15.804688 37.046875 L 17.015625 36.625 L 17.015625 39.0625 L 18.367188 39.0625 L 18.367188 39.808594 L 17.015625 39.808594 L 17.015625 44.476562 C 17.015625 44.9375 17.121094 45.253906 17.371094 45.429688 C 17.585938 45.574219 17.90625 45.679688 18.371094 45.714844 Z M 25.703125 46.28125 L 24.496094 46.28125 L 24.496094 41.644531 C 24.496094 41.183594 24.390625 40.761719 24.175781 40.445312 C 23.925781 40.054688 23.570312 39.878906 23.105469 39.878906 C 22.535156 39.878906 21.859375 40.164062 21.042969 40.761719 L 21.042969 46.316406 L 19.832031 46.316406 L 19.832031 35.242188 L 21.042969 34.855469 L 21.042969 39.878906 C 21.824219 39.3125 22.644531 39.03125 23.570312 39.03125 C 24.210938 39.03125 24.707031 39.242188 25.136719 39.664062 C 25.527344 40.089844 25.742188 40.621094 25.742188 41.257812 Z M 32.113281 42.53125 C 32.113281 41.789062 31.96875 41.152344 31.6875 40.65625 C 31.328125 40.054688 30.832031 39.738281 30.082031 39.703125 C 28.765625 39.773438 28.089844 40.726562 28.089844 42.53125 C 28.089844 43.378906 28.230469 44.054688 28.515625 44.617188 C 28.871094 45.324219 29.402344 45.679688 30.117188 45.679688 C 31.433594 45.644531 32.113281 44.617188 32.113281 42.53125 Z M 33.429688 42.53125 C 33.429688 43.59375 33.144531 44.511719 32.613281 45.21875 C 32.007812 46 31.152344 46.421875 30.121094 46.421875 C 29.050781 46.421875 28.234375 46.03125 27.628906 45.21875 C 27.09375 44.511719 26.808594 43.628906 26.808594 42.53125 C 26.808594 41.503906 27.09375 40.65625 27.699219 39.984375 C 28.339844 39.238281 29.121094 38.886719 30.121094 38.886719 C 31.117188 38.886719 31.933594 39.242188 32.574219 39.984375 C 33.144531 40.691406 33.429688 41.539062 33.429688 42.53125 Z M 40.371094 46.28125 L 39.164062 46.28125 L 39.164062 41.398438 C 39.164062 40.867188 38.984375 40.445312 38.664062 40.160156 C 38.34375 39.875 37.917969 39.699219 37.347656 39.738281 C 36.777344 39.738281 36.207031 39.949219 35.710938 40.300781 L 35.710938 46.351562 L 34.5 46.351562 L 34.5 40.160156 C 35.179688 39.664062 35.816406 39.3125 36.425781 39.167969 C 36.992188 39.027344 37.457031 38.957031 37.882812 38.957031 C 38.171875 38.957031 38.453125 38.992188 38.703125 39.027344 C 39.164062 39.132812 39.558594 39.34375 39.84375 39.628906 C 40.164062 39.949219 40.339844 40.371094 40.339844 40.832031 Z M 40.371094 46.28125 "/>
<path style=" stroke:none;fill-rule:nonzero;fill:url(#linear0);" d="M 19.652344 0.0117188 C 18.511719 0.0117188 17.410156 0.117188 16.449219 0.296875 C 13.601562 0.789062 13.101562 1.816406 13.101562 3.761719 L 13.101562 6.308594 L 19.796875 6.308594 L 19.796875 7.160156 L 10.609375 7.160156 C 8.6875 7.160156 6.980469 8.328125 6.445312 10.519531 C 5.839844 13.066406 5.804688 14.621094 6.445312 17.273438 C 6.90625 19.257812 8.046875 20.636719 10.007812 20.636719 L 12.320312 20.636719 L 12.320312 17.59375 C 12.320312 15.402344 14.246094 13.457031 16.484375 13.457031 L 23.140625 13.457031 C 24.996094 13.457031 26.488281 11.933594 26.488281 10.058594 L 26.488281 3.726562 C 26.488281 1.921875 24.957031 0.578125 23.140625 0.257812 C 21.964844 0.0820312 20.789062 -0.0234375 19.652344 0.0117188 Z M 16.019531 2.027344 C 16.699219 2.027344 17.265625 2.59375 17.265625 3.300781 C 17.265625 4.007812 16.699219 4.574219 16.019531 4.574219 C 15.34375 4.574219 14.773438 4.007812 14.773438 3.300781 C 14.773438 2.59375 15.308594 2.027344 16.019531 2.027344 Z M 16.019531 2.027344 "/>
<path style=" stroke:none;fill-rule:nonzero;fill:url(#linear1);" d="M 27.308594 7.085938 L 27.308594 10.023438 C 27.308594 12.324219 25.347656 14.230469 23.105469 14.230469 L 16.449219 14.230469 C 14.632812 14.230469 13.101562 15.789062 13.101562 17.628906 L 13.101562 23.960938 C 13.101562 25.765625 14.667969 26.824219 16.449219 27.355469 C 18.550781 27.992188 20.578125 28.101562 23.140625 27.355469 C 24.816406 26.863281 26.488281 25.90625 26.488281 23.960938 L 26.488281 21.414062 L 19.792969 21.414062 L 19.792969 20.5625 L 29.835938 20.5625 C 31.757812 20.5625 32.503906 19.222656 33.179688 17.203125 C 33.894531 15.117188 33.859375 13.136719 33.179688 10.449219 C 32.71875 8.539062 31.792969 7.089844 29.835938 7.089844 Z M 23.53125 23.113281 C 24.210938 23.113281 24.777344 23.675781 24.777344 24.382812 C 24.777344 25.089844 24.210938 25.65625 23.53125 25.65625 C 22.855469 25.65625 22.285156 25.089844 22.285156 24.382812 C 22.285156 23.675781 22.855469 23.113281 23.53125 23.113281 Z M 23.53125 23.113281 "/>
<path style=" stroke:none;fill-rule:nonzero;fill:rgb(39.607844%,39.607844%,39.607844%);fill-opacity:1;" d="M 42.683594 38.003906 L 42.898438 38.003906 L 42.898438 36.695312 L 43.398438 36.695312 L 43.398438 36.519531 L 42.1875 36.519531 L 42.1875 36.695312 L 42.683594 36.695312 Z M 43.609375 38.003906 L 43.789062 38.003906 L 43.789062 36.800781 L 44.179688 38.003906 L 44.394531 38.003906 L 44.785156 36.800781 L 44.785156 38.003906 L 45 38.003906 L 45 36.519531 L 44.75 36.519531 L 44.289062 37.792969 L 43.898438 36.519531 L 43.609375 36.519531 Z M 43.609375 38.003906 "/>
<use xlink:href="#surface5" mask="url(#mask0)"/>
</g>
</svg>
